{
  "accessors": [
    {
      "bufferView": 2,
      "componentType": 5126,
      "count": 2599,
      "max": [
        1.0,
        1.0,
        0.9980270862579346
      ],
      "min": [
        -1.0000004768371582,
        -1.0,
        -0.9980276226997375
      ],
      "type": "VEC3"
    },
    {
      "bufferView": 2,
      "byteOffset": 31188,
      "componentType": 5126,
      "count": 2599,
      "max": [
        1.0,
        1.0,
        0.9980267882347107
      ],
      "min": [
        -1.0,
        -1.0,
        -0.9980267882347107
      ],
      "type": "VEC3"
    },
    {
      "bufferView": 1,
      "componentType": 5126,
      "count": 2599,
      "max": [
        0.9999995827674866,
        1.0
      ],
      "min": [
        0.0,
        0.0
      ],
      "type": "VEC2"
    },
    {
      "bufferView": 0,
      "componentType": 5125,
      "count": 14700,
      "type": "SCALAR"
    },
    {
      "bufferView": 2,
      "byteOffset": 62376,
      "componentType": 5126,
      "count": 2599,
      "max": [
        1.0,
        1.0,
        0.9980270862579346
      ],
      "min": [
        -1.0000004768371582,
        -1.0,
        -0.9980276226997375
      ],
      "type": "VEC3"
    },
    {
      "bufferView": 2,
      "byteOffset": 93564,
      "componentType": 5126,
      "count": 2599,
      "max": [
        1.0,
        1.0,
        0.9980267882347107
      ],
      "min": [
        -1.0,
        -1.0,
        -0.9980267882347107
      ],
      "type": "VEC3"
    },
    {
      "bufferView": 3,
      "componentType": 5126,
      "count": 2599,
      "max": [
        1.0,
        0.03137222304940224,
        1.0,
        1.0
      ],
      "min": [
        -1.0,
        -0.031372107565402985,
        -1.0,
        1.0
      ],
      "type": "VEC4"
    },
    {
      "bufferView": 1,
      "byteOffset": 20792,
      "componentType": 5126,
      "count": 2599,
      "max": [
        0.9999995827674866,
        1.0
      ],
      "min": [
        0.0,
        0.0
      ],
      "type": "VEC2"
    },
    {
      "bufferView": 1,
      "byteOffset": 41584,
      "componentType": 5126,
      "count": 2599,
      "max": [
        0.9999995827674866,
        1.0
      ],
      "min": [
        0.0,
        0.0
      ],
      "type": "VEC2"
    },
    {
      "bufferView": 1,
      "byteOffset": 62376,
      "componentType": 5126,
      "count": 2599,
      "max": [
        0.9999995827674866,
        1.0
      ],
      "min": [
        0.0,
        0.0
      ],
      "type": "VEC2"
    },
    {
      "bufferView": 0,
      "byteOffset": 58800,
      "componentType": 5125,
      "count": 14700,
      "type": "SCALAR"
    },
    {
      "bufferView": 4,
      "componentType": 5126,
      "count": 1,
      "max": [
        0.0
      ],
      "min": [
        0.0
      ],
      "type": "SCALAR"
    },
    {
      "bufferView": 5,
      "componentType": 5126,
      "count": 1,
      "max": [
        0.0,
        0.0,
        0.0
      ],
      "min": [
        0.0,
        0.0,
        0.0
      ],
      "type": "VEC3"
    },
    {
      "bufferView": 4,
      "byteOffset": 4,
      "componentType": 5126,
      "count": 1806,
      "max": [
        60.18333435058594
      ],
      "min": [
        0.0
      ],
      "type": "SCALAR"
    },
    {
      "bufferView": 6,
      "componentType": 5126,
      "count": 1806,
      "max": [
        8.364453662858666e-17,
        1.0,
        8.364453662858666e-17,
        1.0
      ],
      "min": [
        -8.659557956448594e-17,
        -0.8651629090309143,
        -8.659557956448594e-17,
        -0.49998465180397034
      ],
      "type": "VEC4"
    }
  ],
  "animations": [
    {
      "channels": [
        {
          "sampler": 0,
          "target": {
            "node": 5,
            "path": "translation"
          }
        },
        {
          "sampler": 1,
          "target": {
            "node": 5,
            "path": "rotation"
          }
        }
      ],
      "name": "earth_rotate",
      "samplers": [
        {
          "input": 11,
          "interpolation": "LINEAR",
          "output": 12
        },
        {
          "input": 13,
          "interpolation": "LINEAR",
          "output": 14
        }
      ]
    }
  ],
  "asset": {
    "extras": {
      "author": "ArtIsInFormation (https://sketchfab.com/ArtIsInFormation)",
      "license": "CC-BY-4.0 (http://creativecommons.org/licenses/by/4.0/)",
      "source": "https://sketchfab.com/3d-models/earth-rotation-8k-with-night-emissions-ecea83e4556648c1b64afa75bdeadb26",
      "title": "Earth Rotation - 8K with Night Emissions"
    },
    "generator": "Sketchfab-16.62.0",
    "version": "2.0"
  },
  "bufferViews": [
    {
      "buffer": 0,
      "byteLength": 117600,
      "name": "floatBufferViews",
      "target": 34963
    },
    {
      "buffer": 0,
      "byteLength": 83168,
      "byteOffset": 117600,
      "byteStride": 8,
      "name": "floatBufferViews",
      "target": 34962
    },
    {
      "buffer": 0,
      "byteLength": 124752,
      "byteOffset": 200768,
      "byteStride": 12,
      "name": "floatBufferViews",
      "target": 34962
    },
    {
      "buffer": 0,
      "byteLength": 41584,
      "byteOffset": 325520,
      "byteStride": 16,
      "name": "floatBufferViews",
      "target": 34962
    },
    {
      "buffer": 0,
      "byteLength": 7228,
      "byteOffset": 367104,
      "name": "floatBufferViews"
    },
    {
      "buffer": 0,
      "byteLength": 12,
      "byteOffset": 374332,
      "byteStride": 12,
      "name": "floatBufferViews"
    },
    {
      "buffer": 0,
      "byteLength": 28896,
      "byteOffset": 374344,
      "byteStride": 16,
      "name": "floatBufferViews"
    }
  ],
  "buffers": [
    {
      "byteLength": 403240,
      "uri": "scene.bin"
    }
  ],
  "extensionsRequired": [
    "KHR_materials_pbrSpecularGlossiness"
  ],
  "extensionsUsed": [
    "KHR_materials_pbrSpecularGlossiness"
  ],
  "images": [
    {
      "uri": "textures/fair_clouds_8k_diffuse.jpeg"
    },
    {
      "uri": "textures/fair_clouds_8k_specularGlossiness.png"
    },
    {
      "uri": "textures/lambert1_diffuse.jpeg"
    },
    {
      "uri": "textures/lambert1_emissive.png"
    },
    {
      "uri": "textures/lambert1_normal.png"
    }
  ],
  "materials": [
    {
      "doubleSided": true,
      "extensions": {
        "KHR_materials_pbrSpecularGlossiness": {
          "diffuseFactor": [
            1.0,
            1.0,
            1.0,
            1.0
          ],
          "diffuseTexture": {
            "index": 0
          },
          "glossinessFactor": 0.0,
          "specularFactor": [
            0.0,
            0.0,
            0.0
          ],
          "specularGlossinessTexture": {
            "index": 1
          }
        }
      },
      "name": "fair_clouds_8k"
    },
    {
      "doubleSided": true,
      "emissiveFactor": [
        1.0,
        1.0,
        1.0
      ],
      "emissiveTexture": {
        "index": 3
      },
      "extensions": {
        "KHR_materials_pbrSpecularGlossiness": {
          "diffuseFactor": [
            1.0,
            1.0,
            1.0,
            1.0
          ],
          "diffuseTexture": {
            "index": 2
          },
          "glossinessFactor": 0.0,
          "specularFactor": [
            0.0,
            0.0,
            0.0
          ]
        }
      },
      "name": "lambert1",
      "normalTexture": {
        "index": 4
      }
    }
  ],
  "meshes": [
    {
      "name": "clouds_fair_clouds_8k_0",
      "primitives": [
        {
          "attributes": {
            "NORMAL": 1,
            "POSITION": 0,
            "TEXCOORD_0": 2
          },
          "indices": 3,
          "material": 0,
          "mode": 4
        }
      ]
    },
    {
      "name": "pSphere1_lambert1_0",
      "primitives": [
        {
          "attributes": {
            "NORMAL": 5,
            "POSITION": 4,
            "TANGENT": 6,
            "TEXCOORD_0": 7,
            "TEXCOORD_1": 8,
            "TEXCOORD_2": 9
          },
          "indices": 10,
          "material": 1,
          "mode": 4
        }
      ]
    }
  ],
  "nodes": [
    {
      "children": [
        1
      ],
      "matrix": [
        0.011844910681247711,
        0.0,
        0.0,
        0.0,
        0.0,
        2.6300985125899315e-18,
        -0.011844910681247711,
        0.0,
        0.0,
        0.011844910681247711,
        2.6300985125899315e-18,
        0.0,
        0.0,
        0.0,
        0.0,
        1.0
      ],
      "name": "Sketchfab_model"
    },
    {
      "children": [
        2
      ],
      "matrix": [
        0.009999999776482582,
        0.0,
        0.0,
        0.0,
        0.0,
        0.0,
        0.009999999776482582,
        0.0,
        0.0,
        -0.009999999776482582,
        0.0,
        0.0,
        0.0,
        0.0,
        0.0,
        1.0
      ],
      "name": "8d043025ab7e4b7ab889d8af45525ffc.fbx"
    },
    {
      "children": [
        3
      ],
      "name": "Object_2"
    },
    {
      "children": [
        4
      ],
      "name": "RootNode"
    },
    {
      "children": [
        5
      ],
      "name": "Earth_Night_Rotation"
    },
    {
      "children": [
        6,
        8
      ],
      "name": "EarthRotation",
      "translation": [
        0.0,
        50000.0,
        0.0
      ]
    },
    {
      "children": [
        7
      ],
      "name": "clouds",
      "scale": [
        49213.53125,
        49213.53125,
        49213.53125
      ]
    },
    {
      "mesh": 0,
      "name": "clouds_fair_clouds_8k_0"
    },
    {
      "children": [
        9
      ],
      "name": "pSphere1",
      "scale": [
        49213.53125,
        49213.53125,
        49213.53125
      ]
    },
    {
      "mesh": 1,
      "name": "pSphere1_lambert1_0"
    }
  ],
  "samplers": [
    {
      "magFilter": 9729,
      "minFilter": 9987,
      "wrapS": 10497,
      "wrapT": 10497
    }
  ],
  "scene": 0,
  "scenes": [
    {
      "name": "Sketchfab_Scene",
      "nodes": [
        0
      ]
    }
  ],
  "textures": [
    {
      "sampler": 0,
      "source": 0
    },
    {
      "sampler": 0,
      "source": 1
    },
    {
      "sampler": 0,
      "source": 2
    },
    {
      "sampler": 0,
      "source": 3
    },
    {
      "sampler": 0,
      "source": 4
    }
  ]
}
